<svg class="marks" width="1481" height="659" viewBox="0 0 1481 659" version="1.1" xmlns="http://www.w3.org/2000/svg" xmlns:xlink="http://www.w3.org/1999/xlink"><rect width="1481" height="659" fill="white"></rect><g fill="none" stroke-miterlimit="10" transform="translate(154,22)"><g class="mark-group role-frame root" role="graphics-object" aria-roledescription="group mark container"><g transform="translate(0,0)"><path class="background" aria-hidden="true" d="M0.5,0.5h1200v600h-1200Z" stroke="#ddd"></path><g><g class="mark-group role-axis" aria-hidden="true"><g transform="translate(0.5,600.5)"><path class="background" aria-hidden="true" d="M0,0h0v0h0Z" pointer-events="none"></path><g><g class="mark-rule role-axis-grid" pointer-events="none"><line transform="translate(0,0)" x2="0" y2="-600" stroke="#ddd" stroke-width="1" opacity="1"></line><line transform="translate(30,0)" x2="0" y2="-600" stroke="#ddd" stroke-width="1" opacity="1"></line><line transform="translate(60,0)" x2="0" y2="-600" stroke="#ddd" stroke-width="1" opacity="1"></line><line transform="translate(90,0)" x2="0" y2="-600" stroke="#ddd" stroke-width="1" opacity="1"></line><line transform="translate(120,0)" x2="0" y2="-600" stroke="#ddd" stroke-width="1" opacity="1"></line><line transform="translate(150,0)" x2="0" y2="-600" stroke="#ddd" stroke-width="1" opacity="1"></line><line transform="translate(180,0)" x2="0" y2="-600" stroke="#ddd" stroke-width="1" opacity="1"></line><line transform="translate(210,0)" x2="0" y2="-600" stroke="#ddd" stroke-width="1" opacity="1"></line><line transform="translate(240,0)" x2="0" y2="-600" stroke="#ddd" stroke-width="1" opacity="1"></line><line transform="translate(270,0)" x2="0" y2="-600" stroke="#ddd" stroke-width="1" opacity="1"></line><line transform="translate(300,0)" x2="0" y2="-600" stroke="#ddd" stroke-width="1" opacity="1"></line><line transform="translate(330,0)" x2="0" y2="-600" stroke="#ddd" stroke-width="1" opacity="1"></line><line transform="translate(360,0)" x2="0" y2="-600" stroke="#ddd" stroke-width="1" opacity="1"></line><line transform="translate(390,0)" x2="0" y2="-600" stroke="#ddd" stroke-width="1" opacity="1"></line><line transform="translate(420,0)" x2="0" y2="-600" stroke="#ddd" stroke-width="1" opacity="1"></line><line transform="translate(450,0)" x2="0" y2="-600" stroke="#ddd" stroke-width="1" opacity="1"></line><line transform="translate(480,0)" x2="0" y2="-600" stroke="#ddd" stroke-width="1" opacity="1"></line><line transform="translate(510,0)" x2="0" y2="-600" stroke="#ddd" stroke-width="1" opacity="1"></line><line transform="translate(540,0)" x2="0" y2="-600" stroke="#ddd" stroke-width="1" opacity="1"></line><line transform="translate(570,0)" x2="0" y2="-600" stroke="#ddd" stroke-width="1" opacity="1"></line><line transform="translate(600,0)" x2="0" y2="-600" stroke="#ddd" stroke-width="1" opacity="1"></line><line transform="translate(630,0)" x2="0" y2="-600" stroke="#ddd" stroke-width="1" opacity="1"></line><line transform="translate(660,0)" x2="0" y2="-600" stroke="#ddd" stroke-width="1" opacity="1"></line><line transform="translate(690,0)" x2="0" y2="-600" stroke="#ddd" stroke-width="1" opacity="1"></line><line transform="translate(720,0)" x2="0" y2="-600" stroke="#ddd" stroke-width="1" opacity="1"></line><line transform="translate(750,0)" x2="0" y2="-600" stroke="#ddd" stroke-width="1" opacity="1"></line><line transform="translate(780,0)" x2="0" y2="-600" stroke="#ddd" stroke-width="1" opacity="1"></line><line transform="translate(810,0)" x2="0" y2="-600" stroke="#ddd" stroke-width="1" opacity="1"></line><line transform="translate(840,0)" x2="0" y2="-600" stroke="#ddd" stroke-width="1" opacity="1"></line><line transform="translate(870,0)" x2="0" y2="-600" stroke="#ddd" stroke-width="1" opacity="1"></line><line transform="translate(900,0)" x2="0" y2="-600" stroke="#ddd" stroke-width="1" opacity="1"></line><line transform="translate(930,0)" x2="0" y2="-600" stroke="#ddd" stroke-width="1" opacity="1"></line><line transform="translate(960,0)" x2="0" y2="-600" stroke="#ddd" stroke-width="1" opacity="1"></line><line transform="translate(990,0)" x2="0" y2="-600" stroke="#ddd" stroke-width="1" opacity="1"></line><line transform="translate(1020,0)" x2="0" y2="-600" stroke="#ddd" stroke-width="1" opacity="1"></line><line transform="translate(1050,0)" x2="0" y2="-600" stroke="#ddd" stroke-width="1" opacity="1"></line><line transform="translate(1080,0)" x2="0" y2="-600" stroke="#ddd" stroke-width="1" opacity="1"></line><line transform="translate(1110,0)" x2="0" y2="-600" stroke="#ddd" stroke-width="1" opacity="1"></line><line transform="translate(1140,0)" x2="0" y2="-600" stroke="#ddd" stroke-width="1" opacity="1"></line><line transform="translate(1170,0)" x2="0" y2="-600" stroke="#ddd" stroke-width="1" opacity="1"></line><line transform="translate(1200,0)" x2="0" y2="-600" stroke="#ddd" stroke-width="1" opacity="1"></line></g></g><path class="foreground" aria-hidden="true" d="" pointer-events="none" display="none"></path></g></g><g class="mark-group role-axis" role="graphics-symbol" aria-roledescription="axis" aria-label="X-axis titled 'Number of software' for a linear scale with values from 0 to 40"><g transform="translate(0.5,600.5)"><path class="background" aria-hidden="true" d="M0,0h0v0h0Z" pointer-events="none"></path><g><g class="mark-rule role-axis-tick" pointer-events="none"><line transform="translate(0,0)" x2="0" y2="5" stroke="#888" stroke-width="1" opacity="1"></line><line transform="translate(30,0)" x2="0" y2="5" stroke="#888" stroke-width="1" opacity="1"></line><line transform="translate(60,0)" x2="0" y2="5" stroke="#888" stroke-width="1" opacity="1"></line><line transform="translate(90,0)" x2="0" y2="5" stroke="#888" stroke-width="1" opacity="1"></line><line transform="translate(120,0)" x2="0" y2="5" stroke="#888" stroke-width="1" opacity="1"></line><line transform="translate(150,0)" x2="0" y2="5" stroke="#888" stroke-width="1" opacity="1"></line><line transform="translate(180,0)" x2="0" y2="5" stroke="#888" stroke-width="1" opacity="1"></line><line transform="translate(210,0)" x2="0" y2="5" stroke="#888" stroke-width="1" opacity="1"></line><line transform="translate(240,0)" x2="0" y2="5" stroke="#888" stroke-width="1" opacity="1"></line><line transform="translate(270,0)" x2="0" y2="5" stroke="#888" stroke-width="1" opacity="1"></line><line transform="translate(300,0)" x2="0" y2="5" stroke="#888" stroke-width="1" opacity="1"></line><line transform="translate(330,0)" x2="0" y2="5" stroke="#888" stroke-width="1" opacity="1"></line><line transform="translate(360,0)" x2="0" y2="5" stroke="#888" stroke-width="1" opacity="1"></line><line transform="translate(390,0)" x2="0" y2="5" stroke="#888" stroke-width="1" opacity="1"></line><line transform="translate(420,0)" x2="0" y2="5" stroke="#888" stroke-width="1" opacity="1"></line><line transform="translate(450,0)" x2="0" y2="5" stroke="#888" stroke-width="1" opacity="1"></line><line transform="translate(480,0)" x2="0" y2="5" stroke="#888" stroke-width="1" opacity="1"></line><line transform="translate(510,0)" x2="0" y2="5" stroke="#888" stroke-width="1" opacity="1"></line><line transform="translate(540,0)" x2="0" y2="5" stroke="#888" stroke-width="1" opacity="1"></line><line transform="translate(570,0)" x2="0" y2="5" stroke="#888" stroke-width="1" opacity="1"></line><line transform="translate(600,0)" x2="0" y2="5" stroke="#888" stroke-width="1" opacity="1"></line><line transform="translate(630,0)" x2="0" y2="5" stroke="#888" stroke-width="1" opacity="1"></line><line transform="translate(660,0)" x2="0" y2="5" stroke="#888" stroke-width="1" opacity="1"></line><line transform="translate(690,0)" x2="0" y2="5" stroke="#888" stroke-width="1" opacity="1"></line><line transform="translate(720,0)" x2="0" y2="5" stroke="#888" stroke-width="1" opacity="1"></line><line transform="translate(750,0)" x2="0" y2="5" stroke="#888" stroke-width="1" opacity="1"></line><line transform="translate(780,0)" x2="0" y2="5" stroke="#888" stroke-width="1" opacity="1"></line><line transform="translate(810,0)" x2="0" y2="5" stroke="#888" stroke-width="1" opacity="1"></line><line transform="translate(840,0)" x2="0" y2="5" stroke="#888" stroke-width="1" opacity="1"></line><line transform="translate(870,0)" x2="0" y2="5" stroke="#888" stroke-width="1" opacity="1"></line><line transform="translate(900,0)" x2="0" y2="5" stroke="#888" stroke-width="1" opacity="1"></line><line transform="translate(930,0)" x2="0" y2="5" stroke="#888" stroke-width="1" opacity="1"></line><line transform="translate(960,0)" x2="0" y2="5" stroke="#888" stroke-width="1" opacity="1"></line><line transform="translate(990,0)" x2="0" y2="5" stroke="#888" stroke-width="1" opacity="1"></line><line transform="translate(1020,0)" x2="0" y2="5" stroke="#888" stroke-width="1" opacity="1"></line><line transform="translate(1050,0)" x2="0" y2="5" stroke="#888" stroke-width="1" opacity="1"></line><line transform="translate(1080,0)" x2="0" y2="5" stroke="#888" stroke-width="1" opacity="1"></line><line transform="translate(1110,0)" x2="0" y2="5" stroke="#888" stroke-width="1" opacity="1"></line><line transform="translate(1140,0)" x2="0" y2="5" stroke="#888" stroke-width="1" opacity="1"></line><line transform="translate(1170,0)" x2="0" y2="5" stroke="#888" stroke-width="1" opacity="1"></line><line transform="translate(1200,0)" x2="0" y2="5" stroke="#888" stroke-width="1" opacity="1"></line></g><g class="mark-text role-axis-label" pointer-events="none"><text text-anchor="start" transform="translate(0,15)" font-family="sans-serif" font-size="10px" fill="#000" opacity="1">0</text><text text-anchor="middle" transform="translate(30,15)" font-family="sans-serif" font-size="10px" fill="#000" opacity="1">1</text><text text-anchor="middle" transform="translate(60,15)" font-family="sans-serif" font-size="10px" fill="#000" opacity="1">2</text><text text-anchor="middle" transform="translate(90,15)" font-family="sans-serif" font-size="10px" fill="#000" opacity="1">3</text><text text-anchor="middle" transform="translate(120,15)" font-family="sans-serif" font-size="10px" fill="#000" opacity="1">4</text><text text-anchor="middle" transform="translate(150,15)" font-family="sans-serif" font-size="10px" fill="#000" opacity="1">5</text><text text-anchor="middle" transform="translate(180,15)" font-family="sans-serif" font-size="10px" fill="#000" opacity="1">6</text><text text-anchor="middle" transform="translate(210,15)" font-family="sans-serif" font-size="10px" fill="#000" opacity="1">7</text><text text-anchor="middle" transform="translate(240,15)" font-family="sans-serif" font-size="10px" fill="#000" opacity="1">8</text><text text-anchor="middle" transform="translate(270,15)" font-family="sans-serif" font-size="10px" fill="#000" opacity="1">9</text><text text-anchor="middle" transform="translate(300,15)" font-family="sans-serif" font-size="10px" fill="#000" opacity="1">10</text><text text-anchor="middle" transform="translate(330,15)" font-family="sans-serif" font-size="10px" fill="#000" opacity="1">11</text><text text-anchor="middle" transform="translate(360,15)" font-family="sans-serif" font-size="10px" fill="#000" opacity="1">12</text><text text-anchor="middle" transform="translate(390,15)" font-family="sans-serif" font-size="10px" fill="#000" opacity="1">13</text><text text-anchor="middle" transform="translate(420,15)" font-family="sans-serif" font-size="10px" fill="#000" opacity="1">14</text><text text-anchor="middle" transform="translate(450,15)" font-family="sans-serif" font-size="10px" fill="#000" opacity="1">15</text><text text-anchor="middle" transform="translate(480,15)" font-family="sans-serif" font-size="10px" fill="#000" opacity="1">16</text><text text-anchor="middle" transform="translate(510,15)" font-family="sans-serif" font-size="10px" fill="#000" opacity="1">17</text><text text-anchor="middle" transform="translate(540,15)" font-family="sans-serif" font-size="10px" fill="#000" opacity="1">18</text><text text-anchor="middle" transform="translate(570,15)" font-family="sans-serif" font-size="10px" fill="#000" opacity="1">19</text><text text-anchor="middle" transform="translate(600,15)" font-family="sans-serif" font-size="10px" fill="#000" opacity="1">20</text><text text-anchor="middle" transform="translate(630,15)" font-family="sans-serif" font-size="10px" fill="#000" opacity="1">21</text><text text-anchor="middle" transform="translate(660,15)" font-family="sans-serif" font-size="10px" fill="#000" opacity="1">22</text><text text-anchor="middle" transform="translate(690,15)" font-family="sans-serif" font-size="10px" fill="#000" opacity="1">23</text><text text-anchor="middle" transform="translate(720,15)" font-family="sans-serif" font-size="10px" fill="#000" opacity="1">24</text><text text-anchor="middle" transform="translate(750,15)" font-family="sans-serif" font-size="10px" fill="#000" opacity="1">25</text><text text-anchor="middle" transform="translate(780,15)" font-family="sans-serif" font-size="10px" fill="#000" opacity="1">26</text><text text-anchor="middle" transform="translate(810,15)" font-family="sans-serif" font-size="10px" fill="#000" opacity="1">27</text><text text-anchor="middle" transform="translate(840,15)" font-family="sans-serif" font-size="10px" fill="#000" opacity="1">28</text><text text-anchor="middle" transform="translate(870,15)" font-family="sans-serif" font-size="10px" fill="#000" opacity="1">29</text><text text-anchor="middle" transform="translate(900,15)" font-family="sans-serif" font-size="10px" fill="#000" opacity="1">30</text><text text-anchor="middle" transform="translate(930,15)" font-family="sans-serif" font-size="10px" fill="#000" opacity="1">31</text><text text-anchor="middle" transform="translate(960,15)" font-family="sans-serif" font-size="10px" fill="#000" opacity="1">32</text><text text-anchor="middle" transform="translate(990,15)" font-family="sans-serif" font-size="10px" fill="#000" opacity="1">33</text><text text-anchor="middle" transform="translate(1020,15)" font-family="sans-serif" font-size="10px" fill="#000" opacity="1">34</text><text text-anchor="middle" transform="translate(1050,15)" font-family="sans-serif" font-size="10px" fill="#000" opacity="1">35</text><text text-anchor="middle" transform="translate(1080,15)" font-family="sans-serif" font-size="10px" fill="#000" opacity="1">36</text><text text-anchor="middle" transform="translate(1110,15)" font-family="sans-serif" font-size="10px" fill="#000" opacity="1">37</text><text text-anchor="middle" transform="translate(1140,15)" font-family="sans-serif" font-size="10px" fill="#000" opacity="1">38</text><text text-anchor="middle" transform="translate(1170,15)" font-family="sans-serif" font-size="10px" fill="#000" opacity="1">39</text><text text-anchor="end" transform="translate(1200,15)" font-family="sans-serif" font-size="10px" fill="#000" opacity="1">40</text></g><g class="mark-rule role-axis-domain" pointer-events="none"><line transform="translate(0,0)" x2="1200" y2="0" stroke="#888" stroke-width="1" opacity="1"></line></g><g class="mark-text role-axis-title" pointer-events="none"><text text-anchor="middle" transform="translate(600,30)" font-family="sans-serif" font-size="11px" font-weight="bold" fill="#000" opacity="1">Number of software</text></g></g><path class="foreground" aria-hidden="true" d="" pointer-events="none" display="none"></path></g></g><g class="mark-group role-axis" role="graphics-symbol" aria-roledescription="axis" aria-label="Y-axis for a discrete scale with 16 values: GPL-2, Unspecified, Apache, GPL-3, AGPL, ending with OLDAP"><g transform="translate(-9.5,0.5)"><path class="background" aria-hidden="true" d="M0,0h0v0h0Z" pointer-events="none"></path><g><g class="mark-rule role-axis-tick" pointer-events="none"><line transform="translate(0,18)" x2="-5" y2="0" stroke="#888" stroke-width="1" opacity="1"></line><line transform="translate(0,56)" x2="-5" y2="0" stroke="#888" stroke-width="1" opacity="1"></line><line transform="translate(0,93)" x2="-5" y2="0" stroke="#888" stroke-width="1" opacity="1"></line><line transform="translate(0,131)" x2="-5" y2="0" stroke="#888" stroke-width="1" opacity="1"></line><line transform="translate(0,168)" x2="-5" y2="0" stroke="#888" stroke-width="1" opacity="1"></line><line transform="translate(0,206)" x2="-5" y2="0" stroke="#888" stroke-width="1" opacity="1"></line><line transform="translate(0,243)" x2="-5" y2="0" stroke="#888" stroke-width="1" opacity="1"></line><line transform="translate(0,281)" x2="-5" y2="0" stroke="#888" stroke-width="1" opacity="1"></line><line transform="translate(0,318)" x2="-5" y2="0" stroke="#888" stroke-width="1" opacity="1"></line><line transform="translate(0,356)" x2="-5" y2="0" stroke="#888" stroke-width="1" opacity="1"></line><line transform="translate(0,393)" x2="-5" y2="0" stroke="#888" stroke-width="1" opacity="1"></line><line transform="translate(0,431)" x2="-5" y2="0" stroke="#888" stroke-width="1" opacity="1"></line><line transform="translate(0,468)" x2="-5" y2="0" stroke="#888" stroke-width="1" opacity="1"></line><line transform="translate(0,506)" x2="-5" y2="0" stroke="#888" stroke-width="1" opacity="1"></line><line transform="translate(0,543)" x2="-5" y2="0" stroke="#888" stroke-width="1" opacity="1"></line><line transform="translate(0,581)" x2="-5" y2="0" stroke="#888" stroke-width="1" opacity="1"></line></g><g class="mark-text role-axis-label" pointer-events="none"><text text-anchor="end" transform="translate(-7,23.25)" font-family="sans-serif" font-size="15px" fill="#000" opacity="1">GPL-2</text><text text-anchor="end" transform="translate(-7,60.75)" font-family="sans-serif" font-size="15px" fill="#000" opacity="1">Unspecified</text><text text-anchor="end" transform="translate(-7,98.25)" font-family="sans-serif" font-size="15px" fill="#000" opacity="1">Apache</text><text text-anchor="end" transform="translate(-7,135.75)" font-family="sans-serif" font-size="15px" fill="#000" opacity="1">GPL-3</text><text text-anchor="end" transform="translate(-7,173.25)" font-family="sans-serif" font-size="15px" fill="#000" opacity="1">AGPL</text><text text-anchor="end" transform="translate(-7,210.75)" font-family="sans-serif" font-size="15px" fill="#000" opacity="1">LGPL-2</text><text text-anchor="end" transform="translate(-7,248.25)" font-family="sans-serif" font-size="15px" fill="#000" opacity="1">EPL</text><text text-anchor="end" transform="translate(-7,285.75)" font-family="sans-serif" font-size="15px" fill="#000" opacity="1">MIT</text><text text-anchor="end" transform="translate(-7,323.25)" font-family="sans-serif" font-size="15px" fill="#000" opacity="1">MPL</text><text text-anchor="end" transform="translate(-7,360.75)" font-family="sans-serif" font-size="15px" fill="#000" opacity="1">BSD</text><text text-anchor="end" transform="translate(-7,398.25)" font-family="sans-serif" font-size="15px" fill="#000" opacity="1">Artistic</text><text text-anchor="end" transform="translate(-7,435.75)" font-family="sans-serif" font-size="15px" fill="#000" opacity="1">CPA</text><text text-anchor="end" transform="translate(-7,473.25)" font-family="sans-serif" font-size="15px" fill="#000" opacity="1">CECILL</text><text text-anchor="end" transform="translate(-7,510.75)" font-family="sans-serif" font-size="15px" fill="#000" opacity="1">CC</text><text text-anchor="end" transform="translate(-7,548.25)" font-family="sans-serif" font-size="15px" fill="#000" opacity="1">EUPL</text><text text-anchor="end" transform="translate(-7,585.75)" font-family="sans-serif" font-size="15px" fill="#000" opacity="1">OLDAP</text></g><g class="mark-rule role-axis-domain" pointer-events="none"><line transform="translate(0,0)" x2="0" y2="600" stroke="#888" stroke-width="1" opacity="1"></line></g></g><path class="foreground" aria-hidden="true" d="" pointer-events="none" display="none"></path></g></g><g class="mark-rect role-mark marks" role="graphics-object" aria-roledescription="rect mark container"><path aria-label="Number: 16; License: GPL-3" role="graphics-symbol" aria-roledescription="bar" d="M0,114.375h480v33.75h-480Z" fill="#e45756"></path><path aria-label="Number: 7; License: LGPL-2" role="graphics-symbol" aria-roledescription="bar" d="M0,189.375h210v33.75h-210Z" fill="#ff9d98"></path><path aria-label="Number: 6; License: EPL" role="graphics-symbol" aria-roledescription="bar" d="M0,226.875h180v33.75h-180Z" fill="#f2cf5b"></path><path aria-label="Number: 1; License: Artistic" role="graphics-symbol" aria-roledescription="bar" d="M0,376.875h30v33.75h-30Z" fill="#f58518"></path><path aria-label="Number: 14; License: AGPL" role="graphics-symbol" aria-roledescription="bar" d="M0,151.875h420v33.75h-420Z" fill="#4c78a8"></path><path aria-label="Number: 1; License: CPA" role="graphics-symbol" aria-roledescription="bar" d="M0,414.375h30v33.75h-30Z" fill="#b79a20"></path><path aria-label="Number: 1; License: CECILL" role="graphics-symbol" aria-roledescription="bar" d="M0,451.875h30v33.75h-30Z" fill="#88d27a"></path><path aria-label="Number: 1; License: CC" role="graphics-symbol" aria-roledescription="bar" d="M0,489.375h30v33.75h-30Z" fill="#54a24b"></path><path aria-label="Number: 30; License: Unspecified" role="graphics-symbol" aria-roledescription="bar" d="M0,39.375h900v33.75h-900Z" fill="#fcbfd2"></path><path aria-label="Number: 21; License: Apache" role="graphics-symbol" aria-roledescription="bar" d="M0,76.875h630v33.75h-630Z" fill="#9ecae9"></path><path aria-label="Number: 1; License: EUPL" role="graphics-symbol" aria-roledescription="bar" d="M0,526.875h30v33.75h-30Z" fill="#439894"></path><path aria-label="Number: 4; License: BSD" role="graphics-symbol" aria-roledescription="bar" d="M0,339.375h120v33.75h-120Z" fill="#ffbf79"></path><path aria-label="Number: 6; License: MIT" role="graphics-symbol" aria-roledescription="bar" d="M0,264.375h180v33.75h-180Z" fill="#79706e"></path><path aria-label="Number: 40; License: GPL-2" role="graphics-symbol" aria-roledescription="bar" d="M0,1.875h1200v33.75h-1200Z" fill="#83bcb6"></path><path aria-label="Number: 6; License: MPL" role="graphics-symbol" aria-roledescription="bar" d="M0,301.875h180v33.75h-180Z" fill="#bab0ac"></path><path aria-label="Number: 1; License: OLDAP" role="graphics-symbol" aria-roledescription="bar" d="M0,564.375h30v33.75h-30Z" fill="#d67195"></path></g><g class="mark-group role-legend" role="graphics-symbol" aria-roledescription="legend" aria-label="Symbol legend titled 'Licenses' for fill color with 16 values: AGPL, Apache, Artistic, BSD, CC, ending with Unspecified"><g transform="translate(1218,0)"><path class="background" aria-hidden="true" d="M0,0h104v222h-104Z" pointer-events="none"></path><g><g class="mark-group role-legend-entry"><g transform="translate(0,16)"><path class="background" aria-hidden="true" d="M0,0h0v0h0Z" pointer-events="none"></path><g><g class="mark-group role-scope" role="graphics-object" aria-roledescription="group mark container"><g transform="translate(0,0)"><path class="background" aria-hidden="true" d="M0,0h104v11h-104Z" pointer-events="none" opacity="1"></path><g><g class="mark-symbol role-legend-symbol" pointer-events="none"><path transform="translate(6,6)" d="M-5,-5h10v10h-10Z" fill="#4c78a8" stroke-width="1.5" opacity="1"></path></g><g class="mark-text role-legend-label" pointer-events="none"><text text-anchor="start" transform="translate(16,9)" font-family="sans-serif" font-size="10px" fill="#000" opacity="1">AGPL</text></g></g><path class="foreground" aria-hidden="true" d="" pointer-events="none" display="none"></path></g><g transform="translate(0,13)"><path class="background" aria-hidden="true" d="M0,0h104v11h-104Z" pointer-events="none" opacity="1"></path><g><g class="mark-symbol role-legend-symbol" pointer-events="none"><path transform="translate(6,6)" d="M-5,-5h10v10h-10Z" fill="#9ecae9" stroke-width="1.5" opacity="1"></path></g><g class="mark-text role-legend-label" pointer-events="none"><text text-anchor="start" transform="translate(16,9)" font-family="sans-serif" font-size="10px" fill="#000" opacity="1">Apache</text></g></g><path class="foreground" aria-hidden="true" d="" pointer-events="none" display="none"></path></g><g transform="translate(0,26)"><path class="background" aria-hidden="true" d="M0,0h104v11h-104Z" pointer-events="none" opacity="1"></path><g><g class="mark-symbol role-legend-symbol" pointer-events="none"><path transform="translate(6,6)" d="M-5,-5h10v10h-10Z" fill="#f58518" stroke-width="1.5" opacity="1"></path></g><g class="mark-text role-legend-label" pointer-events="none"><text text-anchor="start" transform="translate(16,9)" font-family="sans-serif" font-size="10px" fill="#000" opacity="1">Artistic</text></g></g><path class="foreground" aria-hidden="true" d="" pointer-events="none" display="none"></path></g><g transform="translate(0,39)"><path class="background" aria-hidden="true" d="M0,0h104v11h-104Z" pointer-events="none" opacity="1"></path><g><g class="mark-symbol role-legend-symbol" pointer-events="none"><path transform="translate(6,6)" d="M-5,-5h10v10h-10Z" fill="#ffbf79" stroke-width="1.5" opacity="1"></path></g><g class="mark-text role-legend-label" pointer-events="none"><text text-anchor="start" transform="translate(16,9)" font-family="sans-serif" font-size="10px" fill="#000" opacity="1">BSD</text></g></g><path class="foreground" aria-hidden="true" d="" pointer-events="none" display="none"></path></g><g transform="translate(0,52)"><path class="background" aria-hidden="true" d="M0,0h104v11h-104Z" pointer-events="none" opacity="1"></path><g><g class="mark-symbol role-legend-symbol" pointer-events="none"><path transform="translate(6,6)" d="M-5,-5h10v10h-10Z" fill="#54a24b" stroke-width="1.5" opacity="1"></path></g><g class="mark-text role-legend-label" pointer-events="none"><text text-anchor="start" transform="translate(16,9)" font-family="sans-serif" font-size="10px" fill="#000" opacity="1">CC</text></g></g><path class="foreground" aria-hidden="true" d="" pointer-events="none" display="none"></path></g><g transform="translate(0,65)"><path class="background" aria-hidden="true" d="M0,0h104v11h-104Z" pointer-events="none" opacity="1"></path><g><g class="mark-symbol role-legend-symbol" pointer-events="none"><path transform="translate(6,6)" d="M-5,-5h10v10h-10Z" fill="#88d27a" stroke-width="1.5" opacity="1"></path></g><g class="mark-text role-legend-label" pointer-events="none"><text text-anchor="start" transform="translate(16,9)" font-family="sans-serif" font-size="10px" fill="#000" opacity="1">CECILL</text></g></g><path class="foreground" aria-hidden="true" d="" pointer-events="none" display="none"></path></g><g transform="translate(0,78)"><path class="background" aria-hidden="true" d="M0,0h104v11h-104Z" pointer-events="none" opacity="1"></path><g><g class="mark-symbol role-legend-symbol" pointer-events="none"><path transform="translate(6,6)" d="M-5,-5h10v10h-10Z" fill="#b79a20" stroke-width="1.5" opacity="1"></path></g><g class="mark-text role-legend-label" pointer-events="none"><text text-anchor="start" transform="translate(16,9)" font-family="sans-serif" font-size="10px" fill="#000" opacity="1">CPA</text></g></g><path class="foreground" aria-hidden="true" d="" pointer-events="none" display="none"></path></g><g transform="translate(0,91)"><path class="background" aria-hidden="true" d="M0,0h104v11h-104Z" pointer-events="none" opacity="1"></path><g><g class="mark-symbol role-legend-symbol" pointer-events="none"><path transform="translate(6,6)" d="M-5,-5h10v10h-10Z" fill="#f2cf5b" stroke-width="1.5" opacity="1"></path></g><g class="mark-text role-legend-label" pointer-events="none"><text text-anchor="start" transform="translate(16,9)" font-family="sans-serif" font-size="10px" fill="#000" opacity="1">EPL</text></g></g><path class="foreground" aria-hidden="true" d="" pointer-events="none" display="none"></path></g><g transform="translate(0,104)"><path class="background" aria-hidden="true" d="M0,0h104v11h-104Z" pointer-events="none" opacity="1"></path><g><g class="mark-symbol role-legend-symbol" pointer-events="none"><path transform="translate(6,6)" d="M-5,-5h10v10h-10Z" fill="#439894" stroke-width="1.5" opacity="1"></path></g><g class="mark-text role-legend-label" pointer-events="none"><text text-anchor="start" transform="translate(16,9)" font-family="sans-serif" font-size="10px" fill="#000" opacity="1">EUPL</text></g></g><path class="foreground" aria-hidden="true" d="" pointer-events="none" display="none"></path></g><g transform="translate(0,117)"><path class="background" aria-hidden="true" d="M0,0h104v11h-104Z" pointer-events="none" opacity="1"></path><g><g class="mark-symbol role-legend-symbol" pointer-events="none"><path transform="translate(6,6)" d="M-5,-5h10v10h-10Z" fill="#83bcb6" stroke-width="1.5" opacity="1"></path></g><g class="mark-text role-legend-label" pointer-events="none"><text text-anchor="start" transform="translate(16,9)" font-family="sans-serif" font-size="10px" fill="#000" opacity="1">GPL-2</text></g></g><path class="foreground" aria-hidden="true" d="" pointer-events="none" display="none"></path></g><g transform="translate(0,130)"><path class="background" aria-hidden="true" d="M0,0h104v11h-104Z" pointer-events="none" opacity="1"></path><g><g class="mark-symbol role-legend-symbol" pointer-events="none"><path transform="translate(6,6)" d="M-5,-5h10v10h-10Z" fill="#e45756" stroke-width="1.5" opacity="1"></path></g><g class="mark-text role-legend-label" pointer-events="none"><text text-anchor="start" transform="translate(16,9)" font-family="sans-serif" font-size="10px" fill="#000" opacity="1">GPL-3</text></g></g><path class="foreground" aria-hidden="true" d="" pointer-events="none" display="none"></path></g><g transform="translate(0,143)"><path class="background" aria-hidden="true" d="M0,0h104v11h-104Z" pointer-events="none" opacity="1"></path><g><g class="mark-symbol role-legend-symbol" pointer-events="none"><path transform="translate(6,6)" d="M-5,-5h10v10h-10Z" fill="#ff9d98" stroke-width="1.5" opacity="1"></path></g><g class="mark-text role-legend-label" pointer-events="none"><text text-anchor="start" transform="translate(16,9)" font-family="sans-serif" font-size="10px" fill="#000" opacity="1">LGPL-2</text></g></g><path class="foreground" aria-hidden="true" d="" pointer-events="none" display="none"></path></g><g transform="translate(0,156)"><path class="background" aria-hidden="true" d="M0,0h104v11h-104Z" pointer-events="none" opacity="1"></path><g><g class="mark-symbol role-legend-symbol" pointer-events="none"><path transform="translate(6,6)" d="M-5,-5h10v10h-10Z" fill="#79706e" stroke-width="1.5" opacity="1"></path></g><g class="mark-text role-legend-label" pointer-events="none"><text text-anchor="start" transform="translate(16,9)" font-family="sans-serif" font-size="10px" fill="#000" opacity="1">MIT</text></g></g><path class="foreground" aria-hidden="true" d="" pointer-events="none" display="none"></path></g><g transform="translate(0,169)"><path class="background" aria-hidden="true" d="M0,0h104v11h-104Z" pointer-events="none" opacity="1"></path><g><g class="mark-symbol role-legend-symbol" pointer-events="none"><path transform="translate(6,6)" d="M-5,-5h10v10h-10Z" fill="#bab0ac" stroke-width="1.5" opacity="1"></path></g><g class="mark-text role-legend-label" pointer-events="none"><text text-anchor="start" transform="translate(16,9)" font-family="sans-serif" font-size="10px" fill="#000" opacity="1">MPL</text></g></g><path class="foreground" aria-hidden="true" d="" pointer-events="none" display="none"></path></g><g transform="translate(0,182)"><path class="background" aria-hidden="true" d="M0,0h104v11h-104Z" pointer-events="none" opacity="1"></path><g><g class="mark-symbol role-legend-symbol" pointer-events="none"><path transform="translate(6,6)" d="M-5,-5h10v10h-10Z" fill="#d67195" stroke-width="1.5" opacity="1"></path></g><g class="mark-text role-legend-label" pointer-events="none"><text text-anchor="start" transform="translate(16,9)" font-family="sans-serif" font-size="10px" fill="#000" opacity="1">OLDAP</text></g></g><path class="foreground" aria-hidden="true" d="" pointer-events="none" display="none"></path></g><g transform="translate(0,195)"><path class="background" aria-hidden="true" d="M0,0h104v11h-104Z" pointer-events="none" opacity="1"></path><g><g class="mark-symbol role-legend-symbol" pointer-events="none"><path transform="translate(6,6)" d="M-5,-5h10v10h-10Z" fill="#fcbfd2" stroke-width="1.5" opacity="1"></path></g><g class="mark-text role-legend-label" pointer-events="none"><text text-anchor="start" transform="translate(16,9)" font-family="sans-serif" font-size="10px" fill="#000" opacity="1">Unspecified</text></g></g><path class="foreground" aria-hidden="true" d="" pointer-events="none" display="none"></path></g></g></g><path class="foreground" aria-hidden="true" d="" pointer-events="none" display="none"></path></g></g><g class="mark-text role-legend-title" pointer-events="none"><text text-anchor="start" transform="translate(0,9)" font-family="sans-serif" font-size="11px" font-weight="bold" fill="#000" opacity="1">Licenses</text></g></g><path class="foreground" aria-hidden="true" d="" pointer-events="none" display="none"></path></g></g><g class="mark-group role-title"><g transform="translate(600,-17)"><path class="background" aria-hidden="true" d="M0,0h0v0h0Z" pointer-events="none"></path><g><g class="mark-text role-title-text" role="graphics-symbol" aria-roledescription="title" aria-label="Title text 'License distribution of recommended free software for the french public sector'" pointer-events="none"><text text-anchor="middle" transform="translate(0,10)" font-family="sans-serif" font-size="13px" font-weight="bold" fill="#000" opacity="1">License distribution of recommended free software for the french public sector</text></g></g><path class="foreground" aria-hidden="true" d="" pointer-events="none" display="none"></path></g></g></g><path class="foreground" aria-hidden="true" d="" display="none"></path></g></g></g></svg>