<svg class="marks" width="1481" height="659" viewBox="0 0 1481 659" version="1.1" xmlns="http://www.w3.org/2000/svg" xmlns:xlink="http://www.w3.org/1999/xlink"><rect width="1481" height="659" style="fill: white;"></rect><g transform="translate(154,22)"><g class="mark-group role-frame root"><g transform="translate(0,0)"><path class="background" d="M0.5,0.5h1200v600h-1200Z" style="fill: none; stroke: #ddd;"></path><g><g class="mark-group role-axis"><g transform="translate(0.5,600.5)"><path class="background" d="M0,0h0v0h0Z" style="pointer-events: none; fill: none;"></path><g><g class="mark-rule role-axis-grid" style="pointer-events: none;"><line transform="translate(0,0)" x2="0" y2="-600" style="fill: none; stroke: #ddd; stroke-width: 1; opacity: 1;"></line><line transform="translate(40,0)" x2="0" y2="-600" style="fill: none; stroke: #ddd; stroke-width: 1; opacity: 1;"></line><line transform="translate(80,0)" x2="0" y2="-600" style="fill: none; stroke: #ddd; stroke-width: 1; opacity: 1;"></line><line transform="translate(120,0)" x2="0" y2="-600" style="fill: none; stroke: #ddd; stroke-width: 1; opacity: 1;"></line><line transform="translate(160,0)" x2="0" y2="-600" style="fill: none; stroke: #ddd; stroke-width: 1; opacity: 1;"></line><line transform="translate(200,0)" x2="0" y2="-600" style="fill: none; stroke: #ddd; stroke-width: 1; opacity: 1;"></line><line transform="translate(240,0)" x2="0" y2="-600" style="fill: none; stroke: #ddd; stroke-width: 1; opacity: 1;"></line><line transform="translate(280,0)" x2="0" y2="-600" style="fill: none; stroke: #ddd; stroke-width: 1; opacity: 1;"></line><line transform="translate(320,0)" x2="0" y2="-600" style="fill: none; stroke: #ddd; stroke-width: 1; opacity: 1;"></line><line transform="translate(360,0)" x2="0" y2="-600" style="fill: none; stroke: #ddd; stroke-width: 1; opacity: 1;"></line><line transform="translate(400,0)" x2="0" y2="-600" style="fill: none; stroke: #ddd; stroke-width: 1; opacity: 1;"></line><line transform="translate(440,0)" x2="0" y2="-600" style="fill: none; stroke: #ddd; stroke-width: 1; opacity: 1;"></line><line transform="translate(480,0)" x2="0" y2="-600" style="fill: none; stroke: #ddd; stroke-width: 1; opacity: 1;"></line><line transform="translate(520,0)" x2="0" y2="-600" style="fill: none; stroke: #ddd; stroke-width: 1; opacity: 1;"></line><line transform="translate(560,0)" x2="0" y2="-600" style="fill: none; stroke: #ddd; stroke-width: 1; opacity: 1;"></line><line transform="translate(600,0)" x2="0" y2="-600" style="fill: none; stroke: #ddd; stroke-width: 1; opacity: 1;"></line><line transform="translate(640,0)" x2="0" y2="-600" style="fill: none; stroke: #ddd; stroke-width: 1; opacity: 1;"></line><line transform="translate(680,0)" x2="0" y2="-600" style="fill: none; stroke: #ddd; stroke-width: 1; opacity: 1;"></line><line transform="translate(720,0)" x2="0" y2="-600" style="fill: none; stroke: #ddd; stroke-width: 1; opacity: 1;"></line><line transform="translate(760,0)" x2="0" y2="-600" style="fill: none; stroke: #ddd; stroke-width: 1; opacity: 1;"></line><line transform="translate(800,0)" x2="0" y2="-600" style="fill: none; stroke: #ddd; stroke-width: 1; opacity: 1;"></line><line transform="translate(840,0)" x2="0" y2="-600" style="fill: none; stroke: #ddd; stroke-width: 1; opacity: 1;"></line><line transform="translate(880,0)" x2="0" y2="-600" style="fill: none; stroke: #ddd; stroke-width: 1; opacity: 1;"></line><line transform="translate(920,0)" x2="0" y2="-600" style="fill: none; stroke: #ddd; stroke-width: 1; opacity: 1;"></line><line transform="translate(960,0)" x2="0" y2="-600" style="fill: none; stroke: #ddd; stroke-width: 1; opacity: 1;"></line><line transform="translate(1000,0)" x2="0" y2="-600" style="fill: none; stroke: #ddd; stroke-width: 1; opacity: 1;"></line><line transform="translate(1040,0)" x2="0" y2="-600" style="fill: none; stroke: #ddd; stroke-width: 1; opacity: 1;"></line><line transform="translate(1080,0)" x2="0" y2="-600" style="fill: none; stroke: #ddd; stroke-width: 1; opacity: 1;"></line><line transform="translate(1120,0)" x2="0" y2="-600" style="fill: none; stroke: #ddd; stroke-width: 1; opacity: 1;"></line><line transform="translate(1160,0)" x2="0" y2="-600" style="fill: none; stroke: #ddd; stroke-width: 1; opacity: 1;"></line><line transform="translate(1200,0)" x2="0" y2="-600" style="fill: none; stroke: #ddd; stroke-width: 1; opacity: 1;"></line></g></g><path class="foreground" d="" style="pointer-events: none; display: none; fill: none;"></path></g></g><g class="mark-group role-axis"><g transform="translate(0.5,600.5)"><path class="background" d="M0,0h0v0h0Z" style="pointer-events: none; fill: none;"></path><g><g class="mark-rule role-axis-tick" style="pointer-events: none;"><line transform="translate(0,0)" x2="0" y2="5" style="fill: none; stroke: #888; stroke-width: 1; opacity: 1;"></line><line transform="translate(40,0)" x2="0" y2="5" style="fill: none; stroke: #888; stroke-width: 1; opacity: 1;"></line><line transform="translate(80,0)" x2="0" y2="5" style="fill: none; stroke: #888; stroke-width: 1; opacity: 1;"></line><line transform="translate(120,0)" x2="0" y2="5" style="fill: none; stroke: #888; stroke-width: 1; opacity: 1;"></line><line transform="translate(160,0)" x2="0" y2="5" style="fill: none; stroke: #888; stroke-width: 1; opacity: 1;"></line><line transform="translate(200,0)" x2="0" y2="5" style="fill: none; stroke: #888; stroke-width: 1; opacity: 1;"></line><line transform="translate(240,0)" x2="0" y2="5" style="fill: none; stroke: #888; stroke-width: 1; opacity: 1;"></line><line transform="translate(280,0)" x2="0" y2="5" style="fill: none; stroke: #888; stroke-width: 1; opacity: 1;"></line><line transform="translate(320,0)" x2="0" y2="5" style="fill: none; stroke: #888; stroke-width: 1; opacity: 1;"></line><line transform="translate(360,0)" x2="0" y2="5" style="fill: none; stroke: #888; stroke-width: 1; opacity: 1;"></line><line transform="translate(400,0)" x2="0" y2="5" style="fill: none; stroke: #888; stroke-width: 1; opacity: 1;"></line><line transform="translate(440,0)" x2="0" y2="5" style="fill: none; stroke: #888; stroke-width: 1; opacity: 1;"></line><line transform="translate(480,0)" x2="0" y2="5" style="fill: none; stroke: #888; stroke-width: 1; opacity: 1;"></line><line transform="translate(520,0)" x2="0" y2="5" style="fill: none; stroke: #888; stroke-width: 1; opacity: 1;"></line><line transform="translate(560,0)" x2="0" y2="5" style="fill: none; stroke: #888; stroke-width: 1; opacity: 1;"></line><line transform="translate(600,0)" x2="0" y2="5" style="fill: none; stroke: #888; stroke-width: 1; opacity: 1;"></line><line transform="translate(640,0)" x2="0" y2="5" style="fill: none; stroke: #888; stroke-width: 1; opacity: 1;"></line><line transform="translate(680,0)" x2="0" y2="5" style="fill: none; stroke: #888; stroke-width: 1; opacity: 1;"></line><line transform="translate(720,0)" x2="0" y2="5" style="fill: none; stroke: #888; stroke-width: 1; opacity: 1;"></line><line transform="translate(760,0)" x2="0" y2="5" style="fill: none; stroke: #888; stroke-width: 1; opacity: 1;"></line><line transform="translate(800,0)" x2="0" y2="5" style="fill: none; stroke: #888; stroke-width: 1; opacity: 1;"></line><line transform="translate(840,0)" x2="0" y2="5" style="fill: none; stroke: #888; stroke-width: 1; opacity: 1;"></line><line transform="translate(880,0)" x2="0" y2="5" style="fill: none; stroke: #888; stroke-width: 1; opacity: 1;"></line><line transform="translate(920,0)" x2="0" y2="5" style="fill: none; stroke: #888; stroke-width: 1; opacity: 1;"></line><line transform="translate(960,0)" x2="0" y2="5" style="fill: none; stroke: #888; stroke-width: 1; opacity: 1;"></line><line transform="translate(1000,0)" x2="0" y2="5" style="fill: none; stroke: #888; stroke-width: 1; opacity: 1;"></line><line transform="translate(1040,0)" x2="0" y2="5" style="fill: none; stroke: #888; stroke-width: 1; opacity: 1;"></line><line transform="translate(1080,0)" x2="0" y2="5" style="fill: none; stroke: #888; stroke-width: 1; opacity: 1;"></line><line transform="translate(1120,0)" x2="0" y2="5" style="fill: none; stroke: #888; stroke-width: 1; opacity: 1;"></line><line transform="translate(1160,0)" x2="0" y2="5" style="fill: none; stroke: #888; stroke-width: 1; opacity: 1;"></line><line transform="translate(1200,0)" x2="0" y2="5" style="fill: none; stroke: #888; stroke-width: 1; opacity: 1;"></line></g><g class="mark-text role-axis-label" style="pointer-events: none;"><text text-anchor="start" transform="translate(0,15)" style="font-family: sans-serif; font-size: 10px; fill: #000; opacity: 1;">0</text><text text-anchor="middle" transform="translate(40,15)" style="font-family: sans-serif; font-size: 10px; fill: #000; opacity: 1;">2</text><text text-anchor="middle" transform="translate(80,15)" style="font-family: sans-serif; font-size: 10px; fill: #000; opacity: 1;">4</text><text text-anchor="middle" transform="translate(120,15)" style="font-family: sans-serif; font-size: 10px; fill: #000; opacity: 1;">6</text><text text-anchor="middle" transform="translate(160,15)" style="font-family: sans-serif; font-size: 10px; fill: #000; opacity: 1;">8</text><text text-anchor="middle" transform="translate(200,15)" style="font-family: sans-serif; font-size: 10px; fill: #000; opacity: 1;">10</text><text text-anchor="middle" transform="translate(240,15)" style="font-family: sans-serif; font-size: 10px; fill: #000; opacity: 1;">12</text><text text-anchor="middle" transform="translate(280,15)" style="font-family: sans-serif; font-size: 10px; fill: #000; opacity: 1;">14</text><text text-anchor="middle" transform="translate(320,15)" style="font-family: sans-serif; font-size: 10px; fill: #000; opacity: 1;">16</text><text text-anchor="middle" transform="translate(360,15)" style="font-family: sans-serif; font-size: 10px; fill: #000; opacity: 1;">18</text><text text-anchor="middle" transform="translate(400,15)" style="font-family: sans-serif; font-size: 10px; fill: #000; opacity: 1;">20</text><text text-anchor="middle" transform="translate(439.99999999999994,15)" style="font-family: sans-serif; font-size: 10px; fill: #000; opacity: 1;">22</text><text text-anchor="middle" transform="translate(480,15)" style="font-family: sans-serif; font-size: 10px; fill: #000; opacity: 1;">24</text><text text-anchor="middle" transform="translate(520,15)" style="font-family: sans-serif; font-size: 10px; fill: #000; opacity: 1;">26</text><text text-anchor="middle" transform="translate(560,15)" style="font-family: sans-serif; font-size: 10px; fill: #000; opacity: 1;">28</text><text text-anchor="middle" transform="translate(600,15)" style="font-family: sans-serif; font-size: 10px; fill: #000; opacity: 1;">30</text><text text-anchor="middle" transform="translate(640,15)" style="font-family: sans-serif; font-size: 10px; fill: #000; opacity: 1;">32</text><text text-anchor="middle" transform="translate(680,15)" style="font-family: sans-serif; font-size: 10px; fill: #000; opacity: 1;">34</text><text text-anchor="middle" transform="translate(720,15)" style="font-family: sans-serif; font-size: 10px; fill: #000; opacity: 1;">36</text><text text-anchor="middle" transform="translate(760,15)" style="font-family: sans-serif; font-size: 10px; fill: #000; opacity: 1;">38</text><text text-anchor="middle" transform="translate(800,15)" style="font-family: sans-serif; font-size: 10px; fill: #000; opacity: 1;">40</text><text text-anchor="middle" transform="translate(840,15)" style="font-family: sans-serif; font-size: 10px; fill: #000; opacity: 1;">42</text><text text-anchor="middle" transform="translate(879.9999999999999,15)" style="font-family: sans-serif; font-size: 10px; fill: #000; opacity: 1;">44</text><text text-anchor="middle" transform="translate(920.0000000000001,15)" style="font-family: sans-serif; font-size: 10px; fill: #000; opacity: 1;">46</text><text text-anchor="middle" transform="translate(960,15)" style="font-family: sans-serif; font-size: 10px; fill: #000; opacity: 1;">48</text><text text-anchor="middle" transform="translate(1000,15)" style="font-family: sans-serif; font-size: 10px; fill: #000; opacity: 1;">50</text><text text-anchor="middle" transform="translate(1040,15)" style="font-family: sans-serif; font-size: 10px; fill: #000; opacity: 1;">52</text><text text-anchor="middle" transform="translate(1080,15)" style="font-family: sans-serif; font-size: 10px; fill: #000; opacity: 1;">54</text><text text-anchor="middle" transform="translate(1120,15)" style="font-family: sans-serif; font-size: 10px; fill: #000; opacity: 1;">56</text><text text-anchor="middle" transform="translate(1160,15)" style="font-family: sans-serif; font-size: 10px; fill: #000; opacity: 1;">58</text><text text-anchor="end" transform="translate(1200,15)" style="font-family: sans-serif; font-size: 10px; fill: #000; opacity: 1;">60</text></g><g class="mark-rule role-axis-domain" style="pointer-events: none;"><line transform="translate(0,0)" x2="1200" y2="0" style="fill: none; stroke: #888; stroke-width: 1; opacity: 1;"></line></g><g class="mark-text role-axis-title" style="pointer-events: none;"><text text-anchor="middle" transform="translate(600,30)" style="font-family: sans-serif; font-size: 11px; font-weight: bold; fill: #000; opacity: 1;">Number of software</text></g></g><path class="foreground" d="" style="pointer-events: none; display: none; fill: none;"></path></g></g><g class="mark-group role-axis"><g transform="translate(-9.5,0.5)"><path class="background" d="M0,0h0v0h0Z" style="pointer-events: none; fill: none;"></path><g><g class="mark-rule role-axis-tick" style="pointer-events: none;"><line transform="translate(0,18)" x2="-5" y2="0" style="fill: none; stroke: #888; stroke-width: 1; opacity: 1;"></line><line transform="translate(0,56)" x2="-5" y2="0" style="fill: none; stroke: #888; stroke-width: 1; opacity: 1;"></line><line transform="translate(0,93)" x2="-5" y2="0" style="fill: none; stroke: #888; stroke-width: 1; opacity: 1;"></line><line transform="translate(0,131)" x2="-5" y2="0" style="fill: none; stroke: #888; stroke-width: 1; opacity: 1;"></line><line transform="translate(0,168)" x2="-5" y2="0" style="fill: none; stroke: #888; stroke-width: 1; opacity: 1;"></line><line transform="translate(0,206)" x2="-5" y2="0" style="fill: none; stroke: #888; stroke-width: 1; opacity: 1;"></line><line transform="translate(0,243)" x2="-5" y2="0" style="fill: none; stroke: #888; stroke-width: 1; opacity: 1;"></line><line transform="translate(0,281)" x2="-5" y2="0" style="fill: none; stroke: #888; stroke-width: 1; opacity: 1;"></line><line transform="translate(0,318)" x2="-5" y2="0" style="fill: none; stroke: #888; stroke-width: 1; opacity: 1;"></line><line transform="translate(0,356)" x2="-5" y2="0" style="fill: none; stroke: #888; stroke-width: 1; opacity: 1;"></line><line transform="translate(0,393)" x2="-5" y2="0" style="fill: none; stroke: #888; stroke-width: 1; opacity: 1;"></line><line transform="translate(0,431)" x2="-5" y2="0" style="fill: none; stroke: #888; stroke-width: 1; opacity: 1;"></line><line transform="translate(0,468)" x2="-5" y2="0" style="fill: none; stroke: #888; stroke-width: 1; opacity: 1;"></line><line transform="translate(0,506)" x2="-5" y2="0" style="fill: none; stroke: #888; stroke-width: 1; opacity: 1;"></line><line transform="translate(0,543)" x2="-5" y2="0" style="fill: none; stroke: #888; stroke-width: 1; opacity: 1;"></line><line transform="translate(0,581)" x2="-5" y2="0" style="fill: none; stroke: #888; stroke-width: 1; opacity: 1;"></line></g><g class="mark-text role-axis-label" style="pointer-events: none;"><text text-anchor="end" transform="translate(-7,23.25)" style="font-family: sans-serif; font-size: 15px; fill: #000; opacity: 1;">Unspecified</text><text text-anchor="end" transform="translate(-7,60.75)" style="font-family: sans-serif; font-size: 15px; fill: #000; opacity: 1;">GPL-2</text><text text-anchor="end" transform="translate(-7,98.25)" style="font-family: sans-serif; font-size: 15px; fill: #000; opacity: 1;">AGPL</text><text text-anchor="end" transform="translate(-7,135.75)" style="font-family: sans-serif; font-size: 15px; fill: #000; opacity: 1;">Apache</text><text text-anchor="end" transform="translate(-7,173.25)" style="font-family: sans-serif; font-size: 15px; fill: #000; opacity: 1;">GPL-3</text><text text-anchor="end" transform="translate(-7,210.75)" style="font-family: sans-serif; font-size: 15px; fill: #000; opacity: 1;">MIT</text><text text-anchor="end" transform="translate(-7,248.25)" style="font-family: sans-serif; font-size: 15px; fill: #000; opacity: 1;">EPL</text><text text-anchor="end" transform="translate(-7,285.75)" style="font-family: sans-serif; font-size: 15px; fill: #000; opacity: 1;">MPL</text><text text-anchor="end" transform="translate(-7,323.25)" style="font-family: sans-serif; font-size: 15px; fill: #000; opacity: 1;">BSD</text><text text-anchor="end" transform="translate(-7,360.75)" style="font-family: sans-serif; font-size: 15px; fill: #000; opacity: 1;">LGPL-2</text><text text-anchor="end" transform="translate(-7,398.25)" style="font-family: sans-serif; font-size: 15px; fill: #000; opacity: 1;">CECILL</text><text text-anchor="end" transform="translate(-7,435.75)" style="font-family: sans-serif; font-size: 15px; fill: #000; opacity: 1;">Artistic</text><text text-anchor="end" transform="translate(-7,473.25)" style="font-family: sans-serif; font-size: 15px; fill: #000; opacity: 1;">CPA</text><text text-anchor="end" transform="translate(-7,510.75)" style="font-family: sans-serif; font-size: 15px; fill: #000; opacity: 1;">CC</text><text text-anchor="end" transform="translate(-7,548.25)" style="font-family: sans-serif; font-size: 15px; fill: #000; opacity: 1;">EUPL</text><text text-anchor="end" transform="translate(-7,585.75)" style="font-family: sans-serif; font-size: 15px; fill: #000; opacity: 1;">OLDAP</text></g><g class="mark-rule role-axis-domain" style="pointer-events: none;"><line transform="translate(0,0)" x2="0" y2="600" style="fill: none; stroke: #888; stroke-width: 1; opacity: 1;"></line></g></g><path class="foreground" d="" style="pointer-events: none; display: none; fill: none;"></path></g></g><g class="mark-rect role-mark marks"><path d="M0,151.875h340v33.75h-340Z" style="fill: #e45756;"></path><path d="M0,339.375h80v33.75h-80Z" style="fill: #ff9d98;"></path><path d="M0,226.875h120v33.75h-120Z" style="fill: #f2cf5b;"></path><path d="M0,414.375h20v33.75h-20Z" style="fill: #f58518;"></path><path d="M0,76.875h420v33.75h-420Z" style="fill: #4c78a8;"></path><path d="M0,451.875h20v33.75h-20Z" style="fill: #b79a20;"></path><path d="M0,376.875h60v33.75h-60Z" style="fill: #88d27a;"></path><path d="M0,489.375h20v33.75h-20Z" style="fill: #54a24b;"></path><path d="M0,1.875h1180v33.75h-1180Z" style="fill: #fcbfd2;"></path><path d="M0,114.375h360v33.75h-360Z" style="fill: #9ecae9;"></path><path d="M0,526.875h20v33.75h-20Z" style="fill: #439894;"></path><path d="M0,301.875h100v33.75h-100Z" style="fill: #ffbf79;"></path><path d="M0,189.375h160v33.75h-160Z" style="fill: #79706e;"></path><path d="M0,39.375h740v33.75h-740Z" style="fill: #83bcb6;"></path><path d="M0,264.375h120v33.75h-120Z" style="fill: #bab0ac;"></path><path d="M0,564.375h20v33.75h-20Z" style="fill: #d67195;"></path></g><g class="mark-group role-legend"><g transform="translate(1218,0)"><path class="background" d="M0,0h104v222h-104Z" style="pointer-events: none; fill: none;"></path><g><g class="mark-group role-legend-entry"><g transform="translate(0,16)"><path class="background" d="M0,0h0v0h0Z" style="pointer-events: none; fill: none;"></path><g><g class="mark-group role-scope"><g transform="translate(0,0)"><path class="background" d="M0,0h104v11h-104Z" style="pointer-events: none; fill: none; opacity: 1;"></path><g><g class="mark-symbol role-legend-symbol" style="pointer-events: none;"><path transform="translate(6,6)" d="M-5,-5h10v10h-10Z" style="fill: #4c78a8; stroke-width: 1.5; opacity: 1;"></path></g><g class="mark-text role-legend-label" style="pointer-events: none;"><text text-anchor="start" transform="translate(16,9)" style="font-family: sans-serif; font-size: 10px; fill: #000; opacity: 1;">AGPL</text></g></g><path class="foreground" d="" style="pointer-events: none; display: none; fill: none;"></path></g><g transform="translate(0,13)"><path class="background" d="M0,0h104v11h-104Z" style="pointer-events: none; fill: none; opacity: 1;"></path><g><g class="mark-symbol role-legend-symbol" style="pointer-events: none;"><path transform="translate(6,6)" d="M-5,-5h10v10h-10Z" style="fill: #9ecae9; stroke-width: 1.5; opacity: 1;"></path></g><g class="mark-text role-legend-label" style="pointer-events: none;"><text text-anchor="start" transform="translate(16,9)" style="font-family: sans-serif; font-size: 10px; fill: #000; opacity: 1;">Apache</text></g></g><path class="foreground" d="" style="pointer-events: none; display: none; fill: none;"></path></g><g transform="translate(0,26)"><path class="background" d="M0,0h104v11h-104Z" style="pointer-events: none; fill: none; opacity: 1;"></path><g><g class="mark-symbol role-legend-symbol" style="pointer-events: none;"><path transform="translate(6,6)" d="M-5,-5h10v10h-10Z" style="fill: #f58518; stroke-width: 1.5; opacity: 1;"></path></g><g class="mark-text role-legend-label" style="pointer-events: none;"><text text-anchor="start" transform="translate(16,9)" style="font-family: sans-serif; font-size: 10px; fill: #000; opacity: 1;">Artistic</text></g></g><path class="foreground" d="" style="pointer-events: none; display: none; fill: none;"></path></g><g transform="translate(0,39)"><path class="background" d="M0,0h104v11h-104Z" style="pointer-events: none; fill: none; opacity: 1;"></path><g><g class="mark-symbol role-legend-symbol" style="pointer-events: none;"><path transform="translate(6,6)" d="M-5,-5h10v10h-10Z" style="fill: #ffbf79; stroke-width: 1.5; opacity: 1;"></path></g><g class="mark-text role-legend-label" style="pointer-events: none;"><text text-anchor="start" transform="translate(16,9)" style="font-family: sans-serif; font-size: 10px; fill: #000; opacity: 1;">BSD</text></g></g><path class="foreground" d="" style="pointer-events: none; display: none; fill: none;"></path></g><g transform="translate(0,52)"><path class="background" d="M0,0h104v11h-104Z" style="pointer-events: none; fill: none; opacity: 1;"></path><g><g class="mark-symbol role-legend-symbol" style="pointer-events: none;"><path transform="translate(6,6)" d="M-5,-5h10v10h-10Z" style="fill: #54a24b; stroke-width: 1.5; opacity: 1;"></path></g><g class="mark-text role-legend-label" style="pointer-events: none;"><text text-anchor="start" transform="translate(16,9)" style="font-family: sans-serif; font-size: 10px; fill: #000; opacity: 1;">CC</text></g></g><path class="foreground" d="" style="pointer-events: none; display: none; fill: none;"></path></g><g transform="translate(0,65)"><path class="background" d="M0,0h104v11h-104Z" style="pointer-events: none; fill: none; opacity: 1;"></path><g><g class="mark-symbol role-legend-symbol" style="pointer-events: none;"><path transform="translate(6,6)" d="M-5,-5h10v10h-10Z" style="fill: #88d27a; stroke-width: 1.5; opacity: 1;"></path></g><g class="mark-text role-legend-label" style="pointer-events: none;"><text text-anchor="start" transform="translate(16,9)" style="font-family: sans-serif; font-size: 10px; fill: #000; opacity: 1;">CECILL</text></g></g><path class="foreground" d="" style="pointer-events: none; display: none; fill: none;"></path></g><g transform="translate(0,78)"><path class="background" d="M0,0h104v11h-104Z" style="pointer-events: none; fill: none; opacity: 1;"></path><g><g class="mark-symbol role-legend-symbol" style="pointer-events: none;"><path transform="translate(6,6)" d="M-5,-5h10v10h-10Z" style="fill: #b79a20; stroke-width: 1.5; opacity: 1;"></path></g><g class="mark-text role-legend-label" style="pointer-events: none;"><text text-anchor="start" transform="translate(16,9)" style="font-family: sans-serif; font-size: 10px; fill: #000; opacity: 1;">CPA</text></g></g><path class="foreground" d="" style="pointer-events: none; display: none; fill: none;"></path></g><g transform="translate(0,91)"><path class="background" d="M0,0h104v11h-104Z" style="pointer-events: none; fill: none; opacity: 1;"></path><g><g class="mark-symbol role-legend-symbol" style="pointer-events: none;"><path transform="translate(6,6)" d="M-5,-5h10v10h-10Z" style="fill: #f2cf5b; stroke-width: 1.5; opacity: 1;"></path></g><g class="mark-text role-legend-label" style="pointer-events: none;"><text text-anchor="start" transform="translate(16,9)" style="font-family: sans-serif; font-size: 10px; fill: #000; opacity: 1;">EPL</text></g></g><path class="foreground" d="" style="pointer-events: none; display: none; fill: none;"></path></g><g transform="translate(0,104)"><path class="background" d="M0,0h104v11h-104Z" style="pointer-events: none; fill: none; opacity: 1;"></path><g><g class="mark-symbol role-legend-symbol" style="pointer-events: none;"><path transform="translate(6,6)" d="M-5,-5h10v10h-10Z" style="fill: #439894; stroke-width: 1.5; opacity: 1;"></path></g><g class="mark-text role-legend-label" style="pointer-events: none;"><text text-anchor="start" transform="translate(16,9)" style="font-family: sans-serif; font-size: 10px; fill: #000; opacity: 1;">EUPL</text></g></g><path class="foreground" d="" style="pointer-events: none; display: none; fill: none;"></path></g><g transform="translate(0,117)"><path class="background" d="M0,0h104v11h-104Z" style="pointer-events: none; fill: none; opacity: 1;"></path><g><g class="mark-symbol role-legend-symbol" style="pointer-events: none;"><path transform="translate(6,6)" d="M-5,-5h10v10h-10Z" style="fill: #83bcb6; stroke-width: 1.5; opacity: 1;"></path></g><g class="mark-text role-legend-label" style="pointer-events: none;"><text text-anchor="start" transform="translate(16,9)" style="font-family: sans-serif; font-size: 10px; fill: #000; opacity: 1;">GPL-2</text></g></g><path class="foreground" d="" style="pointer-events: none; display: none; fill: none;"></path></g><g transform="translate(0,130)"><path class="background" d="M0,0h104v11h-104Z" style="pointer-events: none; fill: none; opacity: 1;"></path><g><g class="mark-symbol role-legend-symbol" style="pointer-events: none;"><path transform="translate(6,6)" d="M-5,-5h10v10h-10Z" style="fill: #e45756; stroke-width: 1.5; opacity: 1;"></path></g><g class="mark-text role-legend-label" style="pointer-events: none;"><text text-anchor="start" transform="translate(16,9)" style="font-family: sans-serif; font-size: 10px; fill: #000; opacity: 1;">GPL-3</text></g></g><path class="foreground" d="" style="pointer-events: none; display: none; fill: none;"></path></g><g transform="translate(0,143)"><path class="background" d="M0,0h104v11h-104Z" style="pointer-events: none; fill: none; opacity: 1;"></path><g><g class="mark-symbol role-legend-symbol" style="pointer-events: none;"><path transform="translate(6,6)" d="M-5,-5h10v10h-10Z" style="fill: #ff9d98; stroke-width: 1.5; opacity: 1;"></path></g><g class="mark-text role-legend-label" style="pointer-events: none;"><text text-anchor="start" transform="translate(16,9)" style="font-family: sans-serif; font-size: 10px; fill: #000; opacity: 1;">LGPL-2</text></g></g><path class="foreground" d="" style="pointer-events: none; display: none; fill: none;"></path></g><g transform="translate(0,156)"><path class="background" d="M0,0h104v11h-104Z" style="pointer-events: none; fill: none; opacity: 1;"></path><g><g class="mark-symbol role-legend-symbol" style="pointer-events: none;"><path transform="translate(6,6)" d="M-5,-5h10v10h-10Z" style="fill: #79706e; stroke-width: 1.5; opacity: 1;"></path></g><g class="mark-text role-legend-label" style="pointer-events: none;"><text text-anchor="start" transform="translate(16,9)" style="font-family: sans-serif; font-size: 10px; fill: #000; opacity: 1;">MIT</text></g></g><path class="foreground" d="" style="pointer-events: none; display: none; fill: none;"></path></g><g transform="translate(0,169)"><path class="background" d="M0,0h104v11h-104Z" style="pointer-events: none; fill: none; opacity: 1;"></path><g><g class="mark-symbol role-legend-symbol" style="pointer-events: none;"><path transform="translate(6,6)" d="M-5,-5h10v10h-10Z" style="fill: #bab0ac; stroke-width: 1.5; opacity: 1;"></path></g><g class="mark-text role-legend-label" style="pointer-events: none;"><text text-anchor="start" transform="translate(16,9)" style="font-family: sans-serif; font-size: 10px; fill: #000; opacity: 1;">MPL</text></g></g><path class="foreground" d="" style="pointer-events: none; display: none; fill: none;"></path></g><g transform="translate(0,182)"><path class="background" d="M0,0h104v11h-104Z" style="pointer-events: none; fill: none; opacity: 1;"></path><g><g class="mark-symbol role-legend-symbol" style="pointer-events: none;"><path transform="translate(6,6)" d="M-5,-5h10v10h-10Z" style="fill: #d67195; stroke-width: 1.5; opacity: 1;"></path></g><g class="mark-text role-legend-label" style="pointer-events: none;"><text text-anchor="start" transform="translate(16,9)" style="font-family: sans-serif; font-size: 10px; fill: #000; opacity: 1;">OLDAP</text></g></g><path class="foreground" d="" style="pointer-events: none; display: none; fill: none;"></path></g><g transform="translate(0,195)"><path class="background" d="M0,0h104v11h-104Z" style="pointer-events: none; fill: none; opacity: 1;"></path><g><g class="mark-symbol role-legend-symbol" style="pointer-events: none;"><path transform="translate(6,6)" d="M-5,-5h10v10h-10Z" style="fill: #fcbfd2; stroke-width: 1.5; opacity: 1;"></path></g><g class="mark-text role-legend-label" style="pointer-events: none;"><text text-anchor="start" transform="translate(16,9)" style="font-family: sans-serif; font-size: 10px; fill: #000; opacity: 1;">Unspecified</text></g></g><path class="foreground" d="" style="pointer-events: none; display: none; fill: none;"></path></g></g></g><path class="foreground" d="" style="pointer-events: none; display: none; fill: none;"></path></g></g><g class="mark-text role-legend-title" style="pointer-events: none;"><text text-anchor="start" transform="translate(0,9)" style="font-family: sans-serif; font-size: 11px; font-weight: bold; fill: #000; opacity: 1;">Licenses</text></g></g><path class="foreground" d="" style="pointer-events: none; display: none; fill: none;"></path></g></g><g class="mark-group role-title"><g transform="translate(600,-17)"><path class="background" d="M0,0h0v0h0Z" style="pointer-events: none; fill: none;"></path><g><g class="mark-text role-title-text" style="pointer-events: none;"><text text-anchor="middle" transform="translate(0,10)" style="font-family: sans-serif; font-size: 13px; font-weight: bold; fill: #000; opacity: 1;">License distribution of recommended free software for the french public sector</text></g></g><path class="foreground" d="" style="pointer-events: none; display: none; fill: none;"></path></g></g></g><path class="foreground" d="" style="display: none; fill: none;"></path></g></g></g></svg>